<svg width="27" height="30" viewBox="0 0 27 30" fill="none" xmlns="http://www.w3.org/2000/svg">
<path fill-rule="evenodd" clip-rule="evenodd" d="M7.2558 2.93903C7.41584 1.42679 8.69533 0.248535 10.25 0.248535H16.9413C18.4959 0.248535 19.7754 1.42679 19.9355 2.93903C20.9567 2.95982 21.8397 3.01264 22.5935 3.15114C23.6079 3.33747 24.4712 3.69242 25.1738 4.39491C25.9793 5.20044 26.3258 6.21466 26.4877 7.41923C26.6436 8.57946 26.6436 10.0546 26.6436 11.8848V20.0612C26.6436 21.8914 26.6436 23.3666 26.4877 24.5269C26.3258 25.7314 25.9793 26.7456 25.1738 27.5512C24.3682 28.3567 23.3541 28.7032 22.1495 28.8651C20.9892 29.021 19.5141 29.021 17.6839 29.021H9.50745C7.67727 29.021 6.20209 29.021 5.04186 28.8651C3.83728 28.7032 2.82306 28.3567 2.01754 27.5512C1.21202 26.7456 0.865558 25.7314 0.703602 24.5269C0.547616 23.3666 0.547642 21.8914 0.547669 20.0612V11.8848C0.547642 10.0546 0.547616 8.57946 0.703602 7.41923C0.865558 6.21466 1.21202 5.20044 2.01754 4.39491C2.72003 3.69242 3.5833 3.33747 4.59769 3.15114C5.35164 3.01264 6.2346 2.95982 7.2558 2.93903ZM7.25896 4.94697C6.29785 4.96749 5.55723 5.01585 4.96036 5.12548C4.20182 5.26482 3.76277 5.48855 3.43697 5.81435C3.0666 6.18472 2.82511 6.70474 2.69309 7.68671C2.55718 8.69756 2.55505 10.0373 2.55505 11.9583V19.9878C2.55505 21.9087 2.55718 23.2484 2.69309 24.2593C2.82511 25.2414 3.0666 25.7613 3.43697 26.1317C3.80735 26.5021 4.32737 26.7436 5.30934 26.8756C6.32019 27.0115 7.65993 27.0136 9.58088 27.0136H17.6104C19.5313 27.0136 20.8711 27.0115 21.882 26.8756C22.864 26.7436 23.3839 26.5021 23.7543 26.1317C24.1248 25.7613 24.3662 25.2414 24.4983 24.2593C24.6341 23.2484 24.6362 21.9087 24.6362 19.9878V11.9583C24.6362 10.0373 24.6341 8.69756 24.4983 7.68671C24.3662 6.70473 24.1248 6.18472 23.7543 5.81435C23.4285 5.48855 22.9895 5.26482 22.231 5.12548C21.634 5.01585 20.8934 4.96749 19.9323 4.94697C19.7594 6.44548 18.4862 7.60893 16.9413 7.60893H10.25C8.70512 7.60893 7.43197 6.44548 7.25896 4.94697ZM10.25 2.25592C9.69569 2.25592 9.24632 2.70529 9.24632 3.25961V4.59786C9.24632 5.15218 9.69569 5.60155 10.25 5.60155H16.9413C17.4956 5.60155 17.945 5.15218 17.945 4.59786V3.25961C17.945 2.70529 17.4956 2.25592 16.9413 2.25592H10.25ZM5.90068 12.6274C5.90068 12.0731 6.35006 11.6237 6.90437 11.6237H20.2869C20.8412 11.6237 21.2906 12.0731 21.2906 12.6274C21.2906 13.1817 20.8412 13.6311 20.2869 13.6311H6.90437C6.35006 13.6311 5.90068 13.1817 5.90068 12.6274ZM7.23894 17.3113C7.23894 16.757 7.68831 16.3076 8.24263 16.3076H18.9487C19.503 16.3076 19.9523 16.757 19.9523 17.3113C19.9523 17.8656 19.503 18.315 18.9487 18.315H8.24263C7.68831 18.315 7.23894 17.8656 7.23894 17.3113ZM8.57719 21.9952C8.57719 21.4409 9.02656 20.9915 9.58088 20.9915H17.6104C18.1647 20.9915 18.6141 21.4409 18.6141 21.9952C18.6141 22.5495 18.1647 22.9988 17.6104 22.9988H9.58088C9.02656 22.9988 8.57719 22.5495 8.57719 21.9952Z" fill="#5E5E5E"/>
</svg>
