<svg width="29" height="26" viewBox="0 0 29 26" fill="none" xmlns="http://www.w3.org/2000/svg">
<path d="M7 20.5H4C2.34314 20.5 1 19.1569 1 17.5V11.5C1 9.01473 3.01473 7 5.5 7H7M7 20.5V16H22V20.5M7 20.5V22C7 23.6569 8.34314 25 10 25H19C20.6569 25 22 23.6569 22 22V20.5M7 7V4C7 2.34314 8.34314 1 10 1H19C20.6569 1 22 2.34314 22 4V7M7 7H22M22 20.5H25C26.6569 20.5 28 19.1569 28 17.5V11.5C28 9.01473 25.9854 7 23.5 7H22M19 11.5H22" stroke="black" stroke-width="2" stroke-linecap="round" stroke-linejoin="round"/>
</svg>
