<svg width="25" height="31" viewBox="0 0 25 31" fill="none" xmlns="http://www.w3.org/2000/svg">
<path d="M2.74494 0.910992C1.98721 1.08691 1.25367 1.70516 0.889882 2.4629L0.665579 2.9357L0.64736 15.3037C0.635114 23.5853 0.653333 27.7685 0.695745 27.9627C0.865391 28.7628 1.46572 29.4967 2.25989 29.8724L2.72672 30.0967L12.4575 30.1149C18.9506 30.1272 22.285 30.1089 22.4791 30.0665C23.4552 29.8604 24.3524 28.9752 24.577 27.9991C24.6194 27.8232 24.6436 24.8645 24.6436 19.6082C24.6436 11.7934 24.6376 11.4721 24.5283 11.2418C24.3829 10.9386 14.4523 1.00179 14.1975 0.905018C13.9852 0.82617 3.07856 0.832142 2.74494 0.910992ZM12.215 6.59175C12.215 10.872 12.2209 10.9267 12.5605 11.5148C12.8272 11.9693 13.3182 12.406 13.8338 12.6545L14.3066 12.8788L18.5686 12.897L22.8247 12.9152V20.3662C22.8247 26.0168 22.8065 27.8537 22.7518 27.9749C22.5941 28.3265 23.1945 28.3082 12.6394 28.3082C2.08427 28.3082 2.68431 28.3265 2.52691 27.9749C2.41162 27.7324 2.42386 3.17852 2.53915 2.97243C2.71507 2.65703 2.57559 2.66928 7.56522 2.66331H12.2153V6.59175H12.215ZM18.2171 11.0781C14.1793 11.0904 14.2217 11.0963 14.0945 10.7508C14.0581 10.6597 14.0339 9.10179 14.0339 6.88893V3.17852L17.9746 7.1192L21.9152 11.0599L18.2171 11.0781Z" fill="#5D5D5D"/>
<path d="M6.63733 16.7893V17.6987H12.6395H18.6416V16.7893V15.8798H12.6395H6.63733V16.7893Z" fill="#5D5D5D"/>
<path d="M6.63733 20.7302V21.6396H12.6395H18.6416V20.7302V19.8207H12.6395H6.63733V20.7302Z" fill="#5D5D5D"/>
<path d="M6.63733 24.5495V25.459H9.48697H12.3363V24.5495V23.6401H9.48697H6.63733V24.5495Z" fill="#5D5D5D"/>
</svg>
