<svg width="29" height="29" viewBox="0 0 29 29" fill="none" xmlns="http://www.w3.org/2000/svg">
<path d="M13.7291 0.469988C12.4982 0.557615 11.2964 0.812151 10.3575 1.17935C7.90398 2.1349 6.04712 3.94587 4.75775 6.6331C4.09846 8.0101 3.61442 9.66667 3.39744 11.2815L3.32233 11.8323L2.976 12.0034C1.88274 12.5458 1.11079 13.6015 0.89381 14.8534C0.839564 15.1663 0.831219 15.4876 0.84791 16.6351C0.864601 17.8786 0.872946 18.0705 0.952228 18.3668C1.32777 19.8106 2.36678 20.8621 3.77716 21.2293C4.29875 21.3628 5.24179 21.367 5.73834 21.2293C6.91088 20.9122 7.87477 20.0818 8.35047 18.976C8.63838 18.3042 8.65925 18.1331 8.65925 16.4891C8.65925 14.8867 8.63838 14.7031 8.39219 14.0689C8.05837 13.2051 7.35736 12.429 6.53533 12.0159L6.24741 11.8699L6.27245 11.5945C6.30583 11.1939 6.53116 10.0756 6.68138 9.57487C7.47837 6.87094 8.83867 5.06833 10.8499 4.05436C11.4299 3.76227 12.2228 3.52025 13.0615 3.37838C13.6957 3.27406 15.2855 3.27406 15.9198 3.37838C16.7502 3.52025 17.4387 3.72471 18.0354 4.00846C20.0925 4.98905 21.5488 6.91685 22.2999 9.65832C22.4793 10.3093 22.6963 11.4484 22.7213 11.8407C22.7213 11.8573 22.5711 11.9492 22.3875 12.0451C21.432 12.55 20.7476 13.4054 20.443 14.4862C20.3554 14.7949 20.347 14.9201 20.3304 16.2387C20.322 17.1692 20.3304 17.7743 20.3637 17.9913C20.4222 18.396 20.6099 18.9718 20.7852 19.2973C21.1357 19.9357 21.7449 20.5491 22.3291 20.8579L22.521 20.9581L22.3458 21.2251C21.7282 22.1765 20.5849 22.9651 19.1578 23.4367C18.5736 23.6328 17.6014 23.8539 17.1007 23.9165L16.8586 23.9416L16.4956 23.5702C16.191 23.2614 16.07 23.1696 15.7737 23.0277C15.298 22.7982 14.9893 22.7273 14.4969 22.7273C13.8376 22.7273 13.3619 22.8859 12.7861 23.2948C12.5274 23.4784 12.1435 23.9374 11.9849 24.2503C11.5968 25.0265 11.6052 26.0029 12.0058 26.7915C12.3354 27.4466 12.9321 27.9432 13.6665 28.181C14.2841 28.3772 15.1061 28.3146 15.6986 28.0267C16.166 27.793 16.5415 27.4592 16.8503 27.0002L17.0214 26.7456L17.3051 26.7206C17.7349 26.683 18.8574 26.4577 19.4916 26.2741C20.3053 26.0446 20.7935 25.8568 21.5154 25.5022C23.3389 24.605 24.6908 23.1863 25.3501 21.4922L25.4628 21.1917L25.7507 21.0791C26.314 20.8579 26.9608 20.3572 27.3572 19.8356C27.6368 19.4684 27.9331 18.8175 28.0415 18.3459C28.125 17.9704 28.1292 17.8661 28.1167 16.3639C28.1 14.8742 28.0958 14.7574 28.004 14.4444C27.8913 14.0355 27.6284 13.4972 27.3906 13.1676C27.0067 12.6502 26.3641 12.1286 25.8509 11.9199C25.6297 11.8323 25.6255 11.824 25.6005 11.6362C25.3001 9.28695 24.6575 7.28404 23.6435 5.56071C22.1121 2.95693 19.7796 1.25446 16.9838 0.699488C16.0742 0.52006 14.547 0.41157 13.7291 0.469988ZM24.7618 14.5488C24.9913 14.6906 25.1957 14.9452 25.2625 15.1788C25.3585 15.5001 25.3585 17.4405 25.2625 17.7659C25.1874 18.0246 24.8953 18.3418 24.6324 18.4503C24.1317 18.6631 23.5016 18.4127 23.2429 17.8995C23.1386 17.6992 23.1386 17.695 23.1386 16.4682C23.1386 15.2581 23.1386 15.2331 23.2346 15.0495C23.4182 14.699 23.6894 14.4945 24.0482 14.4277C24.2819 14.3902 24.5907 14.4403 24.7618 14.5488ZM5.20423 14.5029C5.44208 14.6113 5.6841 14.8742 5.77172 15.1162C5.83431 15.2915 5.84266 15.4793 5.83849 16.4891C5.83849 17.8077 5.82179 17.8869 5.52553 18.1915C5.09574 18.6297 4.43645 18.6339 3.99832 18.2041C3.69371 17.9036 3.69371 17.9203 3.68119 16.56C3.66867 15.5043 3.67702 15.3082 3.73961 15.1246C3.81889 14.8784 4.06091 14.6197 4.31127 14.5029C4.54494 14.3985 4.97056 14.3985 5.20423 14.5029Z" fill="#5D5D5D"/>
</svg>
