<svg width="19" height="12" viewBox="0 0 19 12" fill="none" xmlns="http://www.w3.org/2000/svg">
<path fill-rule="evenodd" clip-rule="evenodd" d="M0.834229 1C0.834229 0.44772 1.28195 0 1.83423 0H17.8342C18.3865 0 18.8342 0.44772 18.8342 1C18.8342 1.55228 18.3865 2 17.8342 2H1.83423C1.28195 2 0.834229 1.55228 0.834229 1ZM3.83423 6C3.83423 5.4477 4.28195 5 4.83423 5H14.8342C15.3865 5 15.8342 5.4477 15.8342 6C15.8342 6.5523 15.3865 7 14.8342 7H4.83423C4.28195 7 3.83423 6.5523 3.83423 6ZM6.83423 11C6.83423 10.4477 7.28195 10 7.83423 10H11.8342C12.3865 10 12.8342 10.4477 12.8342 11C12.8342 11.5523 12.3865 12 11.8342 12H7.83423C7.28195 12 6.83423 11.5523 6.83423 11Z" fill="#5E5E5E"/>
</svg>
